ffmpeg started on 2016-12-04 at 21:27:41
Report written to "Output/x264/results/ffmpeg/sintelveryfast1500k.log"
Command line:
Tools/ffmpeg/ffmpeg -benchmark -y -i Input/y4m/sintel.y4m -c:v libx264 -preset veryfast -b:v 1500k -an Output/x264/encoded/sintelveryfast1500k.mkv
ffmpeg version N-82227-gdb23fde Copyright (c) 2000-2016 the FFmpeg developers
  built with gcc 5.4.0 (Ubuntu 5.4.0-6ubuntu1~16.04.2) 20160609
  configuration: --prefix=/home/jaroslav/ffmpeg_build --pkg-config-flags=--static --extra-cflags=-I/home/jaroslav/ffmpeg_build/include --extra-ldflags=-L/home/jaroslav/ffmpeg_build/lib --bindir=/home/jaroslav/bin --enable-gpl --enable-libass --enable-libfdk-aac --enable-libfreetype --enable-libmp3lame --enable-libopus --enable-libtheora --enable-libvorbis --enable-libvpx --enable-libx264 --enable-libx265 --enable-nvenc --enable-libmfx --enable-libxvid --enable-libgsm --enable-libopencore-amrnb --enable-version3 --enable-nonfree
  libavutil      55. 35.100 / 55. 35.100
  libavcodec     57. 66.101 / 57. 66.101
  libavformat    57. 57.100 / 57. 57.100
  libavdevice    57.  2.100 / 57.  2.100
  libavfilter     6. 66.100 /  6. 66.100
  libswscale      4.  3.100 /  4.  3.100
  libswresample   2.  4.100 /  2.  4.100
  libpostproc    54.  2.100 / 54.  2.100
Input #0, yuv4mpegpipe, from 'Input/y4m/sintel.y4m':
  Duration: 00:00:20.83, start: 0.000000, bitrate: 2057307 kb/s
    Stream #0:0: Video: rawvideo (I420 / 0x30323449), yuv420p(progressive), 4096x1744, SAR 1:1 DAR 256:109, 24 fps, 24 tbr, 24 tbn, 24 tbc
[libx264 @ 0x36881c0] using SAR=1/1
[libx264 @ 0x36881c0] using cpu capabilities: MMX2 SSE2Fast SSSE3 SSE4.2 AVX FMA3 AVX2 LZCNT BMI2
[libx264 @ 0x36881c0] profile High, level 5.1
[libx264 @ 0x36881c0] 264 - core 148 - H.264/MPEG-4 AVC codec - Copyleft 2003-2016 - http://www.videolan.org/x264.html - options: cabac=1 ref=1 deblock=1:0:0 analyse=0x3:0x113 me=hex subme=2 psy=1 psy_rd=1.00:0.00 mixed_ref=0 me_range=16 chroma_me=1 trellis=0 8x8dct=1 cqm=0 deadzone=21,11 fast_pskip=1 chroma_qp_offset=0 threads=6 lookahead_threads=2 sliced_threads=0 nr=0 decimate=1 interlaced=0 bluray_compat=0 constrained_intra=0 bframes=3 b_pyramid=2 b_adapt=1 b_bias=0 direct=1 weightb=1 open_gop=0 weightp=1 keyint=250 keyint_min=24 scenecut=40 intra_refresh=0 rc_lookahead=10 rc=abr mbtree=1 bitrate=1500 ratetol=1.0 qcomp=0.60 qpmin=0 qpmax=69 qpstep=4 ip_ratio=1.40 aq=1:1.00
Output #0, matroska, to 'Output/x264/encoded/sintelveryfast1500k.mkv':
  Metadata:
    encoder         : Lavf57.57.100
    Stream #0:0: Video: h264 (libx264) (H264 / 0x34363248), yuv420p, 4096x1744 [SAR 1:1 DAR 256:109], q=-1--1, 1500 kb/s, 24 fps, 1k tbn, 24 tbc
    Metadata:
      encoder         : Lavc57.66.101 libx264
    Side data:
      cpb: bitrate max/min/avg: 0/0/1500000 buffer size: 0 vbv_delay: -1
Stream mapping:
  Stream #0:0 -> #0:0 (rawvideo (native) -> h264 (libx264))
Press [q] to stop, [?] for help
frame=   14 fps=0.0 q=0.0 size=       0kB time=00:00:00.00 bitrate=N/A speed=   0x    frame=   22 fps= 18 q=41.0 size=       1kB time=-00:00:00.04 bitrate=N/A speed=N/A    frame=   25 fps= 14 q=46.0 size=       1kB time=00:00:00.08 bitrate=  69.8kbits/s speed=0.0476x    frame=   29 fps= 13 q=53.0 size=       1kB time=00:00:00.25 bitrate=  23.4kbits/s speed=0.111x    frame=   35 fps= 13 q=54.0 size=       1kB time=00:00:00.50 bitrate=  11.7kbits/s speed=0.18x    frame=   40 fps= 12 q=56.0 size=       1kB time=00:00:00.70 bitrate=   8.3kbits/s speed=0.209x    frame=   49 fps= 12 q=56.0 size=       1kB time=00:00:01.08 bitrate=   5.4kbits/s speed=0.264x    frame=   53 fps= 11 q=56.0 size=       1kB time=00:00:01.25 bitrate=   4.7kbits/s speed=0.268x    frame=   54 fps=8.3 q=56.0 size=       1kB time=00:00:01.29 bitrate=   4.5kbits/s speed=0.199x    frame=   55 fps=5.7 q=56.0 size=       1kB time=00:00:01.33 bitrate=   4.4kbits/s speed=0.138x    frame=   56 fps=5.2 q=56.0 size=       1kB time=00:00:01.37 bitrate=   4.3kbits/s speed=0.129x    frame=   61 fps=5.4 q=56.0 size=       1kB time=00:00:01.58 bitrate=   3.7kbits/s speed=0.14x    frame=   66 fps=5.4 q=56.0 size=       1kB time=00:00:01.79 bitrate=   3.3kbits/s speed=0.148x    frame=   79 fps=6.1 q=56.0 size=       1kB time=00:00:02.33 bitrate=   2.5kbits/s speed=0.181x    frame=   82 fps=6.0 q=56.0 size=       1kB time=00:00:02.45 bitrate=   2.4kbits/s speed=0.18x    frame=   89 fps=6.2 q=57.0 size=       1kB time=00:00:02.75 bitrate=   2.1kbits/s speed=0.193x    frame=   96 fps=6.5 q=57.0 size=       1kB time=00:00:03.04 bitrate=   1.9kbits/s speed=0.206x    frame=  106 fps=6.9 q=57.0 size=       1kB time=00:00:03.45 bitrate=   1.7kbits/s speed=0.224x    frame=  115 fps=7.2 q=54.0 size=       1kB time=00:00:03.83 bitrate=   1.5kbits/s speed=0.239x    frame=  120 fps=7.2 q=57.0 size=     914kB time=00:00:04.04 bitrate=1851.1kbits/s speed=0.241x    frame=  122 fps=6.9 q=57.0 size=     914kB time=00:00:04.12 bitrate=1813.8kbits/s speed=0.235x    frame=  128 fps=7.1 q=57.0 size=     914kB time=00:00:04.37 bitrate=1710.2kbits/s speed=0.242x    frame=  133 fps=7.0 q=57.0 size=     914kB time=00:00:04.58 bitrate=1632.6kbits/s speed=0.242x    frame=  139 fps=7.1 q=57.0 size=     914kB time=00:00:04.83 bitrate=1548.2kbits/s speed=0.248x    frame=  143 fps=7.0 q=57.0 size=     914kB time=00:00:05.00 bitrate=1496.5kbits/s speed=0.246x    frame=  149 fps=7.1 q=57.0 size=     914kB time=00:00:05.25 bitrate=1425.2kbits/s speed=0.252x    frame=  151 fps=7.1 q=57.0 size=     914kB time=00:00:05.33 bitrate=1403.1kbits/s speed=0.249x    frame=  154 fps=7.0 q=57.0 size=     914kB time=00:00:05.45 bitrate=1370.9kbits/s speed=0.247x    frame=  159 fps=7.0 q=58.0 size=     914kB time=00:00:05.66 bitrate=1320.4kbits/s speed=0.248x    frame=  161 fps=6.8 q=58.0 size=     914kB time=00:00:05.75 bitrate=1301.3kbits/s speed=0.242x    frame=  167 fps=6.9 q=58.0 size=     914kB time=00:00:06.00 bitrate=1247.1kbits/s speed=0.248x    frame=  169 fps=6.8 q=58.0 size=     914kB time=00:00:06.08 bitrate=1230.1kbits/s speed=0.245x    frame=  173 fps=6.7 q=58.0 size=     914kB time=00:00:06.25 bitrate=1197.2kbits/s speed=0.243x    frame=  177 fps=6.7 q=58.0 size=    1384kB time=00:00:06.41 bitrate=1766.8kbits/s speed=0.241x    frame=  183 fps=6.7 q=58.0 size=    1384kB time=00:00:06.66 bitrate=1700.5kbits/s speed=0.243x    frame=  185 fps=6.6 q=58.0 size=    1384kB time=00:00:06.75 bitrate=1679.6kbits/s speed=0.24x    frame=  194 fps=6.7 q=58.0 size=    1384kB time=00:00:07.12 bitrate=1591.2kbits/s speed=0.245x    frame=  198 fps=6.6 q=58.0 size=    1384kB time=00:00:07.29 bitrate=1554.8kbits/s speed=0.244x    frame=  206 fps=6.8 q=58.0 size=    1559kB time=00:00:07.62 bitrate=1674.3kbits/s speed=0.251x    frame=  208 fps=6.7 q=58.0 size=    1559kB time=00:00:07.70 bitrate=1656.2kbits/s speed=0.249x    frame=  213 fps=6.7 q=57.0 size=    1559kB time=00:00:07.91 bitrate=1612.5kbits/s speed=0.25x    frame=  217 fps=6.7 q=57.0 size=    1559kB time=00:00:08.08 bitrate=1579.4kbits/s speed=0.249x    frame=  220 fps=6.6 q=57.0 size=    1559kB time=00:00:08.20 bitrate=1555.4kbits/s speed=0.247x    frame=  226 fps=6.6 q=57.0 size=    1559kB time=00:00:08.45 bitrate=1509.4kbits/s speed=0.246x    frame=  233 fps=6.7 q=57.0 size=    1559kB time=00:00:08.75 bitrate=1459.0kbits/s speed=0.25x    frame=  237 fps=6.7 q=57.0 size=    1559kB time=00:00:08.91 bitrate=1431.7kbits/s speed=0.25x    frame=  242 fps=6.6 q=57.0 size=    1559kB time=00:00:09.12 bitrate=1399.1kbits/s speed=0.25x    frame=  248 fps=6.7 q=57.0 size=    1559kB time=00:00:09.37 bitrate=1361.8kbits/s speed=0.253x    frame=  249 fps=6.6 q=57.0 size=    1559kB time=00:00:09.41 bitrate=1355.7kbits/s speed=0.249x    frame=  254 fps=6.6 q=57.0 size=    1559kB time=00:00:09.62 bitrate=1326.4kbits/s speed=0.249x    frame=  256 fps=6.5 q=57.0 size=    1559kB time=00:00:09.70 bitrate=1315.1kbits/s speed=0.248x    frame=  259 fps=6.5 q=57.0 size=    1559kB time=00:00:09.83 bitrate=1298.3kbits/s speed=0.245x    frame=  262 fps=6.4 q=57.0 size=    1559kB time=00:00:09.95 bitrate=1282.1kbits/s speed=0.244x    frame=  265 fps=6.4 q=57.0 size=    1559kB time=00:00:10.08 bitrate=1266.2kbits/s speed=0.242x    frame=  268 fps=6.3 q=57.0 size=    1559kB time=00:00:10.20 bitrate=1250.7kbits/s speed=0.241x    frame=  271 fps=6.3 q=56.0 size=    1559kB time=00:00:10.33 bitrate=1235.5kbits/s speed=0.239x    frame=  275 fps=6.2 q=56.0 size=    1559kB time=00:00:10.50 bitrate=1215.9kbits/s speed=0.238x    frame=  281 fps=6.3 q=54.0 size=    1559kB time=00:00:10.75 bitrate=1187.6kbits/s speed=0.241x    frame=  287 fps=6.3 q=56.0 size=    2039kB time=00:00:11.00 bitrate=1518.6kbits/s speed=0.243x    frame=  291 fps=6.4 q=56.0 size=    2039kB time=00:00:11.16 bitrate=1495.9kbits/s speed=0.244x    frame=  297 fps=6.4 q=56.0 size=    2039kB time=00:00:11.41 bitrate=1463.1kbits/s speed=0.245x    frame=  311 fps=6.6 q=55.0 size=    2039kB time=00:00:12.00 bitrate=1392.1kbits/s speed=0.255x    frame=  322 fps=6.7 q=55.0 size=    2039kB time=00:00:12.45 bitrate=1340.9kbits/s speed=0.261x    frame=  324 fps=6.7 q=55.0 size=    2039kB time=00:00:12.54 bitrate=1331.9kbits/s speed=0.259x    frame=  329 fps=6.7 q=55.0 size=    2039kB time=00:00:12.75 bitrate=1310.2kbits/s speed=0.259x    frame=  333 fps=6.7 q=54.0 size=    2039kB time=00:00:12.91 bitrate=1293.2kbits/s speed=0.258x    frame=  334 fps=6.6 q=54.0 size=    2039kB time=00:00:12.95 bitrate=1289.1kbits/s speed=0.256x    frame=  337 fps=6.6 q=54.0 size=    2039kB time=00:00:13.08 bitrate=1276.8kbits/s speed=0.254x    frame=  339 fps=6.5 q=54.0 size=    2039kB time=00:00:13.16 bitrate=1268.7kbits/s speed=0.252x    frame=  340 fps=6.4 q=54.0 size=    2039kB time=00:00:13.20 bitrate=1264.7kbits/s speed=0.25x    frame=  346 fps=6.5 q=53.0 size=    2039kB time=00:00:13.45 bitrate=1241.3kbits/s speed=0.252x    frame=  349 fps=6.4 q=53.0 size=    2039kB time=00:00:13.58 bitrate=1229.8kbits/s speed=0.251x    frame=  352 fps=6.4 q=53.0 size=    2039kB time=00:00:13.70 bitrate=1218.6kbits/s speed=0.249x    frame=  358 fps=6.4 q=53.0 size=    2039kB time=00:00:13.95 bitrate=1196.8kbits/s speed=0.25x    frame=  361 fps=6.4 q=53.0 size=    2039kB time=00:00:14.08 bitrate=1186.2kbits/s speed=0.249x    frame=  362 fps=6.4 q=52.0 size=    2039kB time=00:00:14.12 bitrate=1182.6kbits/s speed=0.248x    frame=  364 fps=6.3 q=53.0 size=    2039kB time=00:00:14.20 bitrate=1175.7kbits/s speed=0.246x    frame=  366 fps=6.3 q=52.0 size=    2039kB time=00:00:14.29 bitrate=1168.8kbits/s speed=0.244x    frame=  369 fps=6.2 q=52.0 size=    2039kB time=00:00:14.41 bitrate=1158.7kbits/s speed=0.243x    frame=  375 fps=6.3 q=52.0 size=    2039kB time=00:00:14.66 bitrate=1138.9kbits/s speed=0.245x    frame=  392 fps=6.5 q=51.0 size=    2355kB time=00:00:15.37 bitrate=1254.8kbits/s speed=0.254x    frame=  397 fps=6.5 q=51.0 size=    2355kB time=00:00:15.58 bitrate=1238.0kbits/s speed=0.255x    frame=  403 fps=6.6 q=51.0 size=    2355kB time=00:00:15.83 bitrate=1218.5kbits/s speed=0.257x    frame=  408 fps=6.5 q=51.0 size=    2355kB time=00:00:16.04 bitrate=1202.6kbits/s speed=0.257x    frame=  413 fps=6.5 q=51.0 size=    2355kB time=00:00:16.25 bitrate=1187.2kbits/s speed=0.258x    frame=  417 fps=6.6 q=51.0 size=    2355kB time=00:00:16.41 bitrate=1175.1kbits/s speed=0.258x    frame=  423 fps=6.6 q=51.0 size=    2355kB time=00:00:16.66 bitrate=1157.5kbits/s speed=0.258x    frame=  426 fps=6.5 q=51.0 size=    2355kB time=00:00:16.79 bitrate=1148.9kbits/s speed=0.256x    frame=  431 fps=6.5 q=51.0 size=    2355kB time=00:00:17.00 bitrate=1134.8kbits/s speed=0.256x    frame=  446 fps=6.6 q=50.0 size=    2690kB time=00:00:17.62 bitrate=1250.2kbits/s speed=0.262x    frame=  452 fps=6.6 q=51.0 size=    2690kB time=00:00:17.87 bitrate=1232.7kbits/s speed=0.262x    frame=  453 fps=6.6 q=51.0 size=    2690kB time=00:00:17.91 bitrate=1229.8kbits/s speed=0.26x    frame=  459 fps=6.6 q=50.0 size=    2690kB time=00:00:18.16 bitrate=1212.9kbits/s speed=0.262x    frame=  466 fps=6.7 q=50.0 size=    2690kB time=00:00:18.45 bitrate=1193.8kbits/s speed=0.264x    frame=  481 fps=6.8 q=49.0 size=    2690kB time=00:00:19.08 bitrate=1154.7kbits/s speed=0.271x    frame=  498 fps=7.0 q=49.0 size=    2690kB time=00:00:19.79 bitrate=1113.3kbits/s speed=0.279x    frame=  500 fps=7.0 q=-1.0 Lsize=    3094kB time=00:00:20.70 bitrate=1223.7kbits/s speed=0.291x    
video:3089kB audio:0kB subtitle:0kB other streams:0kB global headers:0kB muxing overhead: 0.143335%
bench: utime=55.224s
bench: maxrss=927176kB
[libx264 @ 0x36881c0] frame I:8     Avg QP:44.51  size: 22750
[libx264 @ 0x36881c0] frame P:284   Avg QP:49.35  size:  8135
[libx264 @ 0x36881c0] frame B:208   Avg QP:47.59  size:  3222
[libx264 @ 0x36881c0] consecutive B-frames: 41.2%  8.0%  6.0% 44.8%
[libx264 @ 0x36881c0] mb I  I16..4: 59.5% 40.5%  0.0%
[libx264 @ 0x36881c0] mb P  I16..4: 10.5%  7.3%  0.0%  P16..4:  2.6%  0.3%  0.1%  0.0%  0.0%    skip:79.2%
[libx264 @ 0x36881c0] mb B  I16..4:  1.2%  0.7%  0.0%  B16..8:  3.3%  0.2%  0.0%  direct: 0.5%  skip:94.2%  L0:48.5% L1:50.8% BI: 0.7%
[libx264 @ 0x36881c0] final ratefactor: 47.64
[libx264 @ 0x36881c0] 8x8 transform intra:40.8% inter:73.1%
[libx264 @ 0x36881c0] coded y,uvDC,uvAC intra: 6.2% 19.0% 0.0% inter: 0.0% 0.7% 0.0%
[libx264 @ 0x36881c0] i16 v,h,dc,p: 64% 26%  7%  3%
[libx264 @ 0x36881c0] i8 v,h,dc,ddl,ddr,vr,hd,vl,hu:  5% 12% 78%  1%  0%  0%  1%  1%  1%
[libx264 @ 0x36881c0] i4 v,h,dc,ddl,ddr,vr,hd,vl,hu: 28% 25% 18%  7%  4%  5%  4%  4%  5%
[libx264 @ 0x36881c0] i8c dc,h,v,p: 96%  2%  2%  0%
[libx264 @ 0x36881c0] Weighted P-Frames: Y:0.4% UV:0.0%
[libx264 @ 0x36881c0] kb/s:1214.41
